# xmcd
# Track frame offsets:
# 150
# 16320
# 32203
# 47080
# 60362
# 76984
# 94268
# 113428
# 126366
# 140411
#
# Disc length: 2094 seconds
# Revision: 0
# Processed by: cddbd v1.5.2PL0 Copyright (c) Steve Scherf et al.
# Submitted via: VisiTrax 2.11.2.271 - For more info visit www.synapsa.com
#
DISCID=7b082c0a
DTITLE=Meier, Markus - Modern Days
DYEAR=2011
DGENRE=Country
TTITLE0=Meier, Markus - Blowin'Away
TTITLE1=Meier, Markus - A Perfect Night
TTITLE2=Meier, Markus - Small Town Joe
TTITLE3=Meier, Markus - Modern Days
TTITLE4=Meier, Markus - Restless Heart
TTITLE5=Meier. Markus - Only Human
TTITLE6=Meier, Markus - In Avalon
TTITLE7=Meier, Markus - Born Beautiful
TTITLE8=Meier, Markus - Leap of Faith
TTITLE9=Meier, Markus - Love Tumble
EXTD=
EXTT0=
EXTT1=
EXTT2=
EXTT3=
EXTT4=
EXTT5=
EXTT6=
EXTT7=
EXTT8=
EXTT9=
PLAYORDER=
